<svg width="265" height="129" viewBox="0 0 265 129" fill="none" xmlns="http://www.w3.org/2000/svg">
<g opacity="0.25">
<path d="M0 0.5C73.1607 0.5 139.385 4.97615 187.309 12.21C211.274 15.8275 230.642 20.1318 244.007 24.9014C250.692 27.2872 255.846 29.779 259.319 32.3408C262.806 34.9124 264.5 37.4787 264.5 40C264.5 42.5213 262.806 45.0876 259.319 47.6592C255.846 50.221 250.692 52.7128 244.007 55.0986C230.642 59.8682 211.274 64.1725 187.309 67.79C139.385 75.0238 73.1607 79.5 0 79.5C-73.1607 79.5 -139.385 75.0238 -187.309 67.79C-211.274 64.1725 -230.642 59.8682 -244.007 55.0986C-250.692 52.7128 -255.846 50.221 -259.319 47.6592C-262.806 45.0876 -264.5 42.5213 -264.5 40C-264.5 37.4787 -262.806 34.9124 -259.319 32.3408C-255.846 29.779 -250.692 27.2872 -244.007 24.9014C-230.642 20.1318 -211.274 15.8275 -187.309 12.21C-139.385 4.97615 -73.1607 0.5 0 0.5Z" stroke="white"/>
<path d="M0 12.5C73.1607 12.5 139.385 16.9762 187.309 24.21C211.274 27.8275 230.642 32.1318 244.007 36.9014C250.692 39.2872 255.846 41.779 259.319 44.3408C262.806 46.9124 264.5 49.4787 264.5 52C264.5 54.5213 262.806 57.0876 259.319 59.6592C255.846 62.221 250.692 64.7128 244.007 67.0986C230.642 71.8682 211.274 76.1725 187.309 79.79C139.385 87.0238 73.1607 91.5 0 91.5C-73.1607 91.5 -139.385 87.0238 -187.309 79.79C-211.274 76.1725 -230.642 71.8682 -244.007 67.0986C-250.692 64.7128 -255.846 62.221 -259.319 59.6592C-262.806 57.0876 -264.5 54.5213 -264.5 52C-264.5 49.4787 -262.806 46.9124 -259.319 44.3408C-255.846 41.779 -250.692 39.2872 -244.007 36.9014C-230.642 32.1318 -211.274 27.8275 -187.309 24.21C-139.385 16.9762 -73.1607 12.5 0 12.5Z" stroke="white"/>
<path d="M0 25.5C73.1607 25.5 139.385 29.9762 187.309 37.21C211.274 40.8275 230.642 45.1318 244.007 49.9014C250.692 52.2872 255.846 54.779 259.319 57.3408C262.806 59.9124 264.5 62.4787 264.5 65C264.5 67.5213 262.806 70.0876 259.319 72.6592C255.846 75.221 250.692 77.7128 244.007 80.0986C230.642 84.8682 211.274 89.1725 187.309 92.79C139.385 100.024 73.1607 104.5 0 104.5C-73.1607 104.5 -139.385 100.024 -187.309 92.79C-211.274 89.1725 -230.642 84.8682 -244.007 80.0986C-250.692 77.7128 -255.846 75.221 -259.319 72.6592C-262.806 70.0876 -264.5 67.5213 -264.5 65C-264.5 62.4787 -262.806 59.9124 -259.319 57.3408C-255.846 54.779 -250.692 52.2872 -244.007 49.9014C-230.642 45.1318 -211.274 40.8275 -187.309 37.21C-139.385 29.9762 -73.1607 25.5 0 25.5Z" stroke="white"/>
<path d="M0 37.5C73.1607 37.5 139.385 41.9762 187.309 49.21C211.274 52.8275 230.642 57.1318 244.007 61.9014C250.692 64.2872 255.846 66.779 259.319 69.3408C262.806 71.9124 264.5 74.4787 264.5 77C264.5 79.5213 262.806 82.0876 259.319 84.6592C255.846 87.221 250.692 89.7128 244.007 92.0986C230.642 96.8682 211.274 101.173 187.309 104.79C139.385 112.024 73.1607 116.5 0 116.5C-73.1607 116.5 -139.385 112.024 -187.309 104.79C-211.274 101.173 -230.642 96.8682 -244.007 92.0986C-250.692 89.7128 -255.846 87.221 -259.319 84.6592C-262.806 82.0876 -264.5 79.5213 -264.5 77C-264.5 74.4787 -262.806 71.9124 -259.319 69.3408C-255.846 66.779 -250.692 64.2872 -244.007 61.9014C-230.642 57.1318 -211.274 52.8275 -187.309 49.21C-139.385 41.9762 -73.1607 37.5 0 37.5Z" stroke="white"/>
<path d="M0 49.5C73.1607 49.5 139.385 53.9762 187.309 61.21C211.274 64.8275 230.642 69.1318 244.007 73.9014C250.692 76.2872 255.846 78.779 259.319 81.3408C262.806 83.9124 264.5 86.4787 264.5 89C264.5 91.5213 262.806 94.0876 259.319 96.6592C255.846 99.221 250.692 101.713 244.007 104.099C230.642 108.868 211.274 113.173 187.309 116.79C139.385 124.024 73.1607 128.5 0 128.5C-73.1607 128.5 -139.385 124.024 -187.309 116.79C-211.274 113.173 -230.642 108.868 -244.007 104.099C-250.692 101.713 -255.846 99.221 -259.319 96.6592C-262.806 94.0876 -264.5 91.5213 -264.5 89C-264.5 86.4787 -262.806 83.9124 -259.319 81.3408C-255.846 78.779 -250.692 76.2872 -244.007 73.9014C-230.642 69.1318 -211.274 64.8275 -187.309 61.21C-139.385 53.9762 -73.1607 49.5 0 49.5Z" stroke="white"/>
</g>
</svg>
