<svg width="188" height="129" viewBox="0 0 188 129" fill="none" xmlns="http://www.w3.org/2000/svg">
<g opacity="0.25">
<path d="M-77 0.5C-3.83929 0.5 62.3846 4.97615 110.309 12.21C134.274 15.8275 153.642 20.1318 167.007 24.9014C173.692 27.2872 178.846 29.779 182.319 32.3408C185.806 34.9124 187.5 37.4787 187.5 40C187.5 42.5213 185.806 45.0876 182.319 47.6592C178.846 50.221 173.692 52.7128 167.007 55.0986C153.642 59.8682 134.274 64.1725 110.309 67.79C62.3846 75.0238 -3.83929 79.5 -77 79.5C-150.161 79.5 -216.385 75.0238 -264.309 67.79C-288.274 64.1725 -307.642 59.8682 -321.007 55.0986C-327.692 52.7128 -332.846 50.221 -336.319 47.6592C-339.806 45.0876 -341.5 42.5213 -341.5 40C-341.5 37.4787 -339.806 34.9124 -336.319 32.3408C-332.846 29.779 -327.692 27.2872 -321.007 24.9014C-307.642 20.1318 -288.274 15.8275 -264.309 12.21C-216.385 4.97615 -150.161 0.5 -77 0.5Z" stroke="white"/>
<path d="M-77 12.5C-3.83929 12.5 62.3846 16.9762 110.309 24.21C134.274 27.8275 153.642 32.1318 167.007 36.9014C173.692 39.2872 178.846 41.779 182.319 44.3408C185.806 46.9124 187.5 49.4787 187.5 52C187.5 54.5213 185.806 57.0876 182.319 59.6592C178.846 62.221 173.692 64.7128 167.007 67.0986C153.642 71.8682 134.274 76.1725 110.309 79.79C62.3846 87.0238 -3.83929 91.5 -77 91.5C-150.161 91.5 -216.385 87.0238 -264.309 79.79C-288.274 76.1725 -307.642 71.8682 -321.007 67.0986C-327.692 64.7128 -332.846 62.221 -336.319 59.6592C-339.806 57.0876 -341.5 54.5213 -341.5 52C-341.5 49.4787 -339.806 46.9124 -336.319 44.3408C-332.846 41.779 -327.692 39.2872 -321.007 36.9014C-307.642 32.1318 -288.274 27.8275 -264.309 24.21C-216.385 16.9762 -150.161 12.5 -77 12.5Z" stroke="white"/>
<path d="M-77 25.5C-3.83929 25.5 62.3846 29.9762 110.309 37.21C134.274 40.8275 153.642 45.1318 167.007 49.9014C173.692 52.2872 178.846 54.779 182.319 57.3408C185.806 59.9124 187.5 62.4787 187.5 65C187.5 67.5213 185.806 70.0876 182.319 72.6592C178.846 75.221 173.692 77.7128 167.007 80.0986C153.642 84.8682 134.274 89.1725 110.309 92.79C62.3846 100.024 -3.83929 104.5 -77 104.5C-150.161 104.5 -216.385 100.024 -264.309 92.79C-288.274 89.1725 -307.642 84.8682 -321.007 80.0986C-327.692 77.7128 -332.846 75.221 -336.319 72.6592C-339.806 70.0876 -341.5 67.5213 -341.5 65C-341.5 62.4787 -339.806 59.9124 -336.319 57.3408C-332.846 54.779 -327.692 52.2872 -321.007 49.9014C-307.642 45.1318 -288.274 40.8275 -264.309 37.21C-216.385 29.9762 -150.161 25.5 -77 25.5Z" stroke="white"/>
<path d="M-77 37.5C-3.83929 37.5 62.3846 41.9762 110.309 49.21C134.274 52.8275 153.642 57.1318 167.007 61.9014C173.692 64.2872 178.846 66.779 182.319 69.3408C185.806 71.9124 187.5 74.4787 187.5 77C187.5 79.5213 185.806 82.0876 182.319 84.6592C178.846 87.221 173.692 89.7128 167.007 92.0986C153.642 96.8682 134.274 101.173 110.309 104.79C62.3846 112.024 -3.83929 116.5 -77 116.5C-150.161 116.5 -216.385 112.024 -264.309 104.79C-288.274 101.173 -307.642 96.8682 -321.007 92.0986C-327.692 89.7128 -332.846 87.221 -336.319 84.6592C-339.806 82.0876 -341.5 79.5213 -341.5 77C-341.5 74.4787 -339.806 71.9124 -336.319 69.3408C-332.846 66.779 -327.692 64.2872 -321.007 61.9014C-307.642 57.1318 -288.274 52.8275 -264.309 49.21C-216.385 41.9762 -150.161 37.5 -77 37.5Z" stroke="white"/>
<path d="M-77 49.5C-3.83929 49.5 62.3846 53.9762 110.309 61.21C134.274 64.8275 153.642 69.1318 167.007 73.9014C173.692 76.2872 178.846 78.779 182.319 81.3408C185.806 83.9124 187.5 86.4787 187.5 89C187.5 91.5213 185.806 94.0876 182.319 96.6592C178.846 99.221 173.692 101.713 167.007 104.099C153.642 108.868 134.274 113.173 110.309 116.79C62.3846 124.024 -3.83929 128.5 -77 128.5C-150.161 128.5 -216.385 124.024 -264.309 116.79C-288.274 113.173 -307.642 108.868 -321.007 104.099C-327.692 101.713 -332.846 99.221 -336.319 96.6592C-339.806 94.0876 -341.5 91.5213 -341.5 89C-341.5 86.4787 -339.806 83.9124 -336.319 81.3408C-332.846 78.779 -327.692 76.2872 -321.007 73.9014C-307.642 69.1318 -288.274 64.8275 -264.309 61.21C-216.385 53.9762 -150.161 49.5 -77 49.5Z" stroke="white"/>
</g>
</svg>
