<svg width="186" height="129" viewBox="0 0 186 129" fill="none" xmlns="http://www.w3.org/2000/svg">
<g opacity="0.25">
<path d="M265 0.5C338.161 0.5 404.385 4.97615 452.309 12.21C476.274 15.8275 495.642 20.1318 509.007 24.9014C515.692 27.2872 520.846 29.779 524.319 32.3408C527.806 34.9124 529.5 37.4787 529.5 40C529.5 42.5213 527.806 45.0876 524.319 47.6592C520.846 50.221 515.692 52.7128 509.007 55.0986C495.642 59.8682 476.274 64.1725 452.309 67.79C404.385 75.0238 338.161 79.5 265 79.5C191.839 79.5 125.615 75.0238 77.6914 67.79C53.7255 64.1725 34.3582 59.8682 20.9932 55.0986C14.3077 52.7128 9.15368 50.221 5.68066 47.6592C2.19447 45.0876 0.5 42.5213 0.5 40C0.5 37.4787 2.19447 34.9124 5.68066 32.3408C9.15368 29.779 14.3077 27.2872 20.9932 24.9014C34.3582 20.1318 53.7255 15.8275 77.6914 12.21C125.615 4.97615 191.839 0.5 265 0.5Z" stroke="white"/>
<path d="M265 12.5C338.161 12.5 404.385 16.9762 452.309 24.21C476.274 27.8275 495.642 32.1318 509.007 36.9014C515.692 39.2872 520.846 41.779 524.319 44.3408C527.806 46.9124 529.5 49.4787 529.5 52C529.5 54.5213 527.806 57.0876 524.319 59.6592C520.846 62.221 515.692 64.7128 509.007 67.0986C495.642 71.8682 476.274 76.1725 452.309 79.79C404.385 87.0238 338.161 91.5 265 91.5C191.839 91.5 125.615 87.0238 77.6914 79.79C53.7255 76.1725 34.3582 71.8682 20.9932 67.0986C14.3077 64.7128 9.15368 62.221 5.68066 59.6592C2.19447 57.0876 0.5 54.5213 0.5 52C0.5 49.4787 2.19447 46.9124 5.68066 44.3408C9.15368 41.779 14.3077 39.2872 20.9932 36.9014C34.3582 32.1318 53.7255 27.8275 77.6914 24.21C125.615 16.9762 191.839 12.5 265 12.5Z" stroke="white"/>
<path d="M265 25.5C338.161 25.5 404.385 29.9762 452.309 37.21C476.274 40.8275 495.642 45.1318 509.007 49.9014C515.692 52.2872 520.846 54.779 524.319 57.3408C527.806 59.9124 529.5 62.4787 529.5 65C529.5 67.5213 527.806 70.0876 524.319 72.6592C520.846 75.221 515.692 77.7128 509.007 80.0986C495.642 84.8682 476.274 89.1725 452.309 92.79C404.385 100.024 338.161 104.5 265 104.5C191.839 104.5 125.615 100.024 77.6914 92.79C53.7255 89.1725 34.3582 84.8682 20.9932 80.0986C14.3077 77.7128 9.15368 75.221 5.68066 72.6592C2.19447 70.0876 0.5 67.5213 0.5 65C0.5 62.4787 2.19447 59.9124 5.68066 57.3408C9.15368 54.779 14.3077 52.2872 20.9932 49.9014C34.3582 45.1318 53.7255 40.8275 77.6914 37.21C125.615 29.9762 191.839 25.5 265 25.5Z" stroke="white"/>
<path d="M265 37.5C338.161 37.5 404.385 41.9762 452.309 49.21C476.274 52.8275 495.642 57.1318 509.007 61.9014C515.692 64.2872 520.846 66.779 524.319 69.3408C527.806 71.9124 529.5 74.4787 529.5 77C529.5 79.5213 527.806 82.0876 524.319 84.6592C520.846 87.221 515.692 89.7128 509.007 92.0986C495.642 96.8682 476.274 101.173 452.309 104.79C404.385 112.024 338.161 116.5 265 116.5C191.839 116.5 125.615 112.024 77.6914 104.79C53.7255 101.173 34.3582 96.8682 20.9932 92.0986C14.3077 89.7128 9.15368 87.221 5.68066 84.6592C2.19447 82.0876 0.5 79.5213 0.5 77C0.5 74.4787 2.19447 71.9124 5.68066 69.3408C9.15368 66.779 14.3077 64.2872 20.9932 61.9014C34.3582 57.1318 53.7255 52.8275 77.6914 49.21C125.615 41.9762 191.839 37.5 265 37.5Z" stroke="white"/>
<path d="M265 49.5C338.161 49.5 404.385 53.9762 452.309 61.21C476.274 64.8275 495.642 69.1318 509.007 73.9014C515.692 76.2872 520.846 78.779 524.319 81.3408C527.806 83.9124 529.5 86.4787 529.5 89C529.5 91.5213 527.806 94.0876 524.319 96.6592C520.846 99.221 515.692 101.713 509.007 104.099C495.642 108.868 476.274 113.173 452.309 116.79C404.385 124.024 338.161 128.5 265 128.5C191.839 128.5 125.615 124.024 77.6914 116.79C53.7255 113.173 34.3582 108.868 20.9932 104.099C14.3077 101.713 9.15368 99.221 5.68066 96.6592C2.19447 94.0876 0.5 91.5213 0.5 89C0.5 86.4787 2.19447 83.9124 5.68066 81.3408C9.15368 78.779 14.3077 76.2872 20.9932 73.9014C34.3582 69.1318 53.7255 64.8275 77.6914 61.21C125.615 53.9762 191.839 49.5 265 49.5Z" stroke="white"/>
</g>
</svg>
