<svg width="161" height="129" viewBox="0 0 161 129" fill="none" xmlns="http://www.w3.org/2000/svg">
<g opacity="0.25">
<path d="M-104 0.5C-30.8393 0.5 35.3846 4.97615 83.3086 12.21C107.274 15.8275 126.642 20.1318 140.007 24.9014C146.692 27.2872 151.846 29.779 155.319 32.3408C158.806 34.9124 160.5 37.4787 160.5 40C160.5 42.5213 158.806 45.0876 155.319 47.6592C151.846 50.221 146.692 52.7128 140.007 55.0986C126.642 59.8682 107.274 64.1725 83.3086 67.79C35.3846 75.0238 -30.8393 79.5 -104 79.5C-177.161 79.5 -243.385 75.0238 -291.309 67.79C-315.274 64.1725 -334.642 59.8682 -348.007 55.0986C-354.692 52.7128 -359.846 50.221 -363.319 47.6592C-366.806 45.0876 -368.5 42.5213 -368.5 40C-368.5 37.4787 -366.806 34.9124 -363.319 32.3408C-359.846 29.779 -354.692 27.2872 -348.007 24.9014C-334.642 20.1318 -315.274 15.8275 -291.309 12.21C-243.385 4.97615 -177.161 0.5 -104 0.5Z" stroke="white"/>
<path d="M-104 12.5C-30.8393 12.5 35.3846 16.9762 83.3086 24.21C107.274 27.8275 126.642 32.1318 140.007 36.9014C146.692 39.2872 151.846 41.779 155.319 44.3408C158.806 46.9124 160.5 49.4787 160.5 52C160.5 54.5213 158.806 57.0876 155.319 59.6592C151.846 62.221 146.692 64.7128 140.007 67.0986C126.642 71.8682 107.274 76.1725 83.3086 79.79C35.3846 87.0238 -30.8393 91.5 -104 91.5C-177.161 91.5 -243.385 87.0238 -291.309 79.79C-315.274 76.1725 -334.642 71.8682 -348.007 67.0986C-354.692 64.7128 -359.846 62.221 -363.319 59.6592C-366.806 57.0876 -368.5 54.5213 -368.5 52C-368.5 49.4787 -366.806 46.9124 -363.319 44.3408C-359.846 41.779 -354.692 39.2872 -348.007 36.9014C-334.642 32.1318 -315.274 27.8275 -291.309 24.21C-243.385 16.9762 -177.161 12.5 -104 12.5Z" stroke="white"/>
<path d="M-104 25.5C-30.8393 25.5 35.3846 29.9762 83.3086 37.21C107.274 40.8275 126.642 45.1318 140.007 49.9014C146.692 52.2872 151.846 54.779 155.319 57.3408C158.806 59.9124 160.5 62.4787 160.5 65C160.5 67.5213 158.806 70.0876 155.319 72.6592C151.846 75.221 146.692 77.7128 140.007 80.0986C126.642 84.8682 107.274 89.1725 83.3086 92.79C35.3846 100.024 -30.8393 104.5 -104 104.5C-177.161 104.5 -243.385 100.024 -291.309 92.79C-315.274 89.1725 -334.642 84.8682 -348.007 80.0986C-354.692 77.7128 -359.846 75.221 -363.319 72.6592C-366.806 70.0876 -368.5 67.5213 -368.5 65C-368.5 62.4787 -366.806 59.9124 -363.319 57.3408C-359.846 54.779 -354.692 52.2872 -348.007 49.9014C-334.642 45.1318 -315.274 40.8275 -291.309 37.21C-243.385 29.9762 -177.161 25.5 -104 25.5Z" stroke="white"/>
<path d="M-104 37.5C-30.8393 37.5 35.3846 41.9762 83.3086 49.21C107.274 52.8275 126.642 57.1318 140.007 61.9014C146.692 64.2872 151.846 66.779 155.319 69.3408C158.806 71.9124 160.5 74.4787 160.5 77C160.5 79.5213 158.806 82.0876 155.319 84.6592C151.846 87.221 146.692 89.7128 140.007 92.0986C126.642 96.8682 107.274 101.173 83.3086 104.79C35.3846 112.024 -30.8393 116.5 -104 116.5C-177.161 116.5 -243.385 112.024 -291.309 104.79C-315.274 101.173 -334.642 96.8682 -348.007 92.0986C-354.692 89.7128 -359.846 87.221 -363.319 84.6592C-366.806 82.0876 -368.5 79.5213 -368.5 77C-368.5 74.4787 -366.806 71.9124 -363.319 69.3408C-359.846 66.779 -354.692 64.2872 -348.007 61.9014C-334.642 57.1318 -315.274 52.8275 -291.309 49.21C-243.385 41.9762 -177.161 37.5 -104 37.5Z" stroke="white"/>
<path d="M-104 49.5C-30.8393 49.5 35.3846 53.9762 83.3086 61.21C107.274 64.8275 126.642 69.1318 140.007 73.9014C146.692 76.2872 151.846 78.779 155.319 81.3408C158.806 83.9124 160.5 86.4787 160.5 89C160.5 91.5213 158.806 94.0876 155.319 96.6592C151.846 99.221 146.692 101.713 140.007 104.099C126.642 108.868 107.274 113.173 83.3086 116.79C35.3846 124.024 -30.8393 128.5 -104 128.5C-177.161 128.5 -243.385 124.024 -291.309 116.79C-315.274 113.173 -334.642 108.868 -348.007 104.099C-354.692 101.713 -359.846 99.221 -363.319 96.6592C-366.806 94.0876 -368.5 91.5213 -368.5 89C-368.5 86.4787 -366.806 83.9124 -363.319 81.3408C-359.846 78.779 -354.692 76.2872 -348.007 73.9014C-334.642 69.1318 -315.274 64.8275 -291.309 61.21C-243.385 53.9762 -177.161 49.5 -104 49.5Z" stroke="white"/>
</g>
</svg>
