<svg width="25" height="24" viewBox="0 0 25 24" fill="none" xmlns="http://www.w3.org/2000/svg">
<path fill-rule="evenodd" clip-rule="evenodd" d="M5.55129 3.3042C4.41164 3.3042 3.48446 4.23017 3.48446 5.36833C3.48446 6.50724 4.41164 7.4338 5.55129 7.4338C6.68871 7.4338 7.61406 6.50724 7.61406 5.36833C7.61406 4.23017 6.68871 3.3042 5.55129 3.3042ZM3.76653 8.99818V20.4515H7.32914L7.33049 8.99818H3.76653ZM9.56463 8.99713V20.4503L13.1191 20.4517L13.1205 14.7845C13.1205 13.3298 13.3739 11.8429 15.2534 11.8429C17.1043 11.8429 17.1043 13.5976 17.1043 14.879V20.4503L20.6629 20.449V14.1689C20.6629 11.3348 20.1456 8.71224 16.3929 8.71224C14.6303 8.71224 13.4769 9.70851 13.0246 10.5618H12.9746L12.9747 8.99713H9.56463ZM22.4355 24H1.98185C1.00597 24 0.212021 23.223 0.212021 22.268V1.73068C0.212021 0.776376 1.00597 0 1.98185 0H22.4355C23.4151 0 24.212 0.776376 24.212 1.73068V22.268C24.212 23.223 23.4151 24 22.4355 24Z" fill="white"/>
</svg>
