<svg width="20" height="19" viewBox="0 0 20 19" fill="none" xmlns="http://www.w3.org/2000/svg">
<path fill-rule="evenodd" clip-rule="evenodd" d="M10.2673 0.784274C10.1101 0.787286 9.96029 0.851865 9.85016 0.964142C9.74003 1.07642 9.67835 1.22742 9.67838 1.38469V12.7974C9.67838 12.9567 9.74164 13.1094 9.85423 13.222C9.96684 13.3346 10.1196 13.3978 10.2788 13.3978C10.438 13.3978 10.5908 13.3346 10.7034 13.222C10.816 13.1094 10.8792 12.9567 10.8792 12.7974V1.38469C10.8793 1.30494 10.8633 1.22598 10.8325 1.15244C10.8017 1.07888 10.7565 1.01221 10.6996 0.956317C10.6427 0.90042 10.5752 0.856422 10.5012 0.826884C10.4271 0.797346 10.3479 0.782857 10.2681 0.784274H10.2673ZM19.3523 4.20302C19.2738 4.20528 19.1966 4.22283 19.125 4.2547L13.9723 6.55463C13.8669 6.60226 13.7775 6.67928 13.7147 6.77647C13.652 6.87365 13.6186 6.98688 13.6186 7.10255C13.6186 7.21822 13.652 7.33144 13.7147 7.42863C13.7775 7.52582 13.8669 7.60284 13.9723 7.65047L19.125 9.95775C19.2025 9.9926 19.2862 10.0108 19.3711 10.0111C19.5084 10.0107 19.6413 9.96317 19.7478 9.87665C19.8544 9.79003 19.9281 9.66956 19.9565 9.53529C19.9851 9.401 19.9667 9.26102 19.9044 9.13864C19.8422 9.01627 19.74 8.9189 19.6147 8.86277L15.6891 7.10337L19.6147 5.35053C19.7597 5.28527 19.8728 5.16533 19.9297 5.0169C19.9866 4.86846 19.9825 4.70357 19.9182 4.55818C19.8695 4.4497 19.7898 4.35808 19.689 4.29488C19.5883 4.23167 19.4711 4.1997 19.3523 4.20302ZM0.629063 8.38812C0.712717 8.3485 0.804399 8.32876 0.896945 8.33044V8.33126C1.02776 8.33381 1.15415 8.37902 1.25691 8.46001C1.35966 8.541 1.43315 8.65333 1.46619 8.77993C2.09462 11.1872 3.50383 13.318 5.47307 14.8385C7.4423 16.359 9.8603 17.1834 12.3482 17.1824C12.5075 17.1824 12.6602 17.2457 12.7728 17.3583C12.8854 17.4709 12.9486 17.6236 12.9486 17.7828C12.9486 17.9421 12.8854 18.0948 12.7728 18.2074C12.6602 18.32 12.5075 18.3832 12.3482 18.3832C6.68206 18.3832 1.72866 14.5577 0.304736 9.08096C0.28158 8.99134 0.279458 8.89757 0.298536 8.807C0.317613 8.71643 0.357374 8.63149 0.414711 8.55882C0.472049 8.48616 0.54541 8.42774 0.629063 8.38812Z" fill="white"/>
</svg>
