<svg width="20" height="20" viewBox="0 0 20 20" fill="none" xmlns="http://www.w3.org/2000/svg">
<path fill-rule="evenodd" clip-rule="evenodd" d="M4.84099 2.64336C3.92927 2.64336 3.18753 3.38413 3.18753 4.29466C3.18753 5.20579 3.92927 5.94704 4.84099 5.94704C5.75093 5.94704 6.49121 5.20579 6.49121 4.29466C6.49121 3.38413 5.75093 2.64336 4.84099 2.64336ZM3.41319 7.19855V16.3612H6.26328L6.26436 7.19855H3.41319ZM8.05167 7.19771V16.3603L10.8953 16.3614L10.8964 11.8276C10.8964 10.6639 11.0991 9.47431 12.6027 9.47431C14.0834 9.47431 14.0834 10.8781 14.0834 11.9032V16.3603L16.9303 16.3592V11.3351C16.9303 9.06782 16.5164 6.96979 13.5143 6.96979C12.1042 6.96979 11.1815 7.7668 10.8197 8.4494H10.7797L10.7797 7.19771H8.05167ZM18.3483 19.2H1.98544C1.20474 19.2 0.56958 18.5784 0.56958 17.8144V1.38454C0.56958 0.621101 1.20474 0 1.98544 0H18.3483C19.132 0 19.7696 0.621101 19.7696 1.38454V17.8144C19.7696 18.5784 19.132 19.2 18.3483 19.2Z" fill="white"/>
</svg>
