<svg width="26" height="23" viewBox="0 0 26 23" fill="none" xmlns="http://www.w3.org/2000/svg">
<path fill-rule="evenodd" clip-rule="evenodd" d="M13.0842 0.230587C12.8876 0.234352 12.7004 0.315076 12.5627 0.455422C12.425 0.595768 12.3479 0.784517 12.348 0.981102V15.247C12.348 15.4461 12.4271 15.637 12.5678 15.7778C12.7085 15.9185 12.8994 15.9975 13.0984 15.9975C13.2975 15.9975 13.4885 15.9185 13.6292 15.7778C13.77 15.637 13.849 15.4461 13.849 15.247V0.981102C13.8491 0.881419 13.8292 0.78272 13.7906 0.690788C13.7521 0.598844 13.6957 0.515512 13.6245 0.445641C13.5534 0.375769 13.469 0.320772 13.3765 0.283849C13.2839 0.246926 13.1848 0.228816 13.0852 0.230587H13.0842ZM24.4403 4.50402C24.3423 4.50685 24.2458 4.52879 24.1562 4.56861L17.7153 7.44353C17.5836 7.50307 17.4719 7.59934 17.3934 7.72083C17.315 7.84231 17.2733 7.98384 17.2733 8.12843C17.2733 8.27302 17.315 8.41455 17.3934 8.53603C17.4719 8.65752 17.5836 8.75379 17.7153 8.81333L24.1562 11.6974C24.2531 11.741 24.3578 11.7638 24.4638 11.7641C24.6355 11.7636 24.8017 11.7042 24.9348 11.5961C25.0681 11.4878 25.1601 11.3372 25.1956 11.1694C25.2313 11.0015 25.2083 10.8265 25.1306 10.6735C25.0528 10.5206 24.925 10.3989 24.7683 10.3287L19.8613 8.12945L24.7683 5.9384C24.9496 5.85683 25.0911 5.70691 25.1622 5.52137C25.2333 5.33582 25.2281 5.1297 25.1478 4.94797C25.0869 4.81237 24.9872 4.69785 24.8612 4.61885C24.7354 4.53984 24.5888 4.49987 24.4403 4.50402ZM1.03633 9.73539C1.1409 9.68587 1.2555 9.66119 1.37118 9.66329V9.66432C1.53469 9.6675 1.69269 9.72402 1.82113 9.82526C1.94958 9.92649 2.04144 10.0669 2.08274 10.2252C2.86827 13.2343 4.62979 15.8977 7.09133 17.7984C9.55288 19.699 12.5754 20.7295 15.6853 20.7282C15.8843 20.7282 16.0753 20.8073 16.216 20.9481C16.3568 21.0888 16.4358 21.2798 16.4358 21.4787C16.4358 21.6778 16.3568 21.8688 16.216 22.0095C16.0753 22.1503 15.8843 22.2293 15.6853 22.2293C8.60258 22.2293 2.41083 17.4474 0.63092 10.6014C0.601975 10.4894 0.599323 10.3722 0.62317 10.259C0.647017 10.1458 0.696718 10.0396 0.768389 9.94877C0.840061 9.85795 0.931763 9.78491 1.03633 9.73539Z" fill="white"/>
</svg>
