<svg width="19" height="16" viewBox="0 0 19 16" fill="none" xmlns="http://www.w3.org/2000/svg">
<path d="M18.9939 2.56447C18.309 2.86796 17.5733 3.07302 16.7997 3.1657C17.5979 2.68816 18.195 1.93655 18.4796 1.05114C17.7298 1.49652 16.9091 1.81002 16.0534 1.97801C15.4778 1.36354 14.7156 0.956256 13.8849 0.819402C13.0542 0.682547 12.2016 0.823762 11.4594 1.22114C10.7172 1.61851 10.127 2.2498 9.78033 3.017C9.43366 3.7842 9.35 4.64438 9.54233 5.464C8.02298 5.38772 6.53667 4.99282 5.17983 4.30493C3.823 3.61705 2.62596 2.65155 1.66642 1.4711C1.33833 2.03707 1.14967 2.69325 1.14967 3.39209C1.14931 4.02121 1.30423 4.64069 1.6007 5.19557C1.89717 5.75045 2.32602 6.22357 2.8492 6.57296C2.24245 6.55365 1.64909 6.38971 1.11851 6.09477V6.14398C1.11844 7.02634 1.42365 7.88155 1.98236 8.56451C2.54106 9.24741 3.31884 9.71602 4.18372 9.89083C3.62087 10.0431 3.03075 10.0655 2.45795 9.95638C2.70196 10.7157 3.17729 11.3796 3.81738 11.8553C4.45747 12.3309 5.23028 12.5945 6.02761 12.609C4.67409 13.6717 3.00249 14.248 1.28173 14.2454C0.976918 14.2455 0.672362 14.2277 0.369629 14.1921C2.1163 15.3152 4.14955 15.9112 6.2261 15.9088C13.2555 15.9088 17.0984 10.0868 17.0984 5.03748C17.0984 4.87343 17.0942 4.70775 17.0868 4.5437C17.8343 4.00314 18.4795 3.33377 18.9922 2.56694L18.9939 2.56447Z" fill="white"/>
</svg>
