<svg width="187" height="129" viewBox="0 0 187 129" fill="none" xmlns="http://www.w3.org/2000/svg">
<g opacity="0.25">
<path d="M186.5 40C186.5 42.5213 184.806 45.0875 181.319 47.659C177.846 50.2209 172.692 52.713 166.007 55.0989C152.642 59.8685 133.275 64.1724 109.309 67.7899C61.3846 75.0237 -4.83923 79.5 -78 79.5C-151.161 79.5 -217.385 75.0237 -265.309 67.7899C-289.275 64.1724 -308.642 59.8685 -322.007 55.0989C-328.692 52.713 -333.846 50.2209 -337.319 47.659C-340.806 45.0875 -342.5 42.5213 -342.5 40C-342.5 37.4787 -340.806 34.9125 -337.319 32.341C-333.846 29.7791 -328.692 27.287 -322.007 24.9011C-308.642 20.1315 -289.275 15.8276 -265.309 12.2101C-217.385 4.97631 -151.161 0.5 -78 0.5C-4.83923 0.5 61.3846 4.97631 109.309 12.2101C133.275 15.8276 152.642 20.1315 166.007 24.9011C172.692 27.287 177.846 29.7791 181.319 32.341C184.806 34.9125 186.5 37.4787 186.5 40Z" stroke="white"/>
<path d="M186.5 52C186.5 54.5213 184.806 57.0875 181.319 59.659C177.846 62.2209 172.692 64.713 166.007 67.0989C152.642 71.8685 133.275 76.1724 109.309 79.7899C61.3846 87.0237 -4.83923 91.5 -78 91.5C-151.161 91.5 -217.385 87.0237 -265.309 79.7899C-289.275 76.1724 -308.642 71.8685 -322.007 67.0989C-328.692 64.713 -333.846 62.2209 -337.319 59.659C-340.806 57.0875 -342.5 54.5213 -342.5 52C-342.5 49.4787 -340.806 46.9125 -337.319 44.341C-333.846 41.7791 -328.692 39.287 -322.007 36.9011C-308.642 32.1315 -289.275 27.8276 -265.309 24.2101C-217.385 16.9763 -151.161 12.5 -78 12.5C-4.83923 12.5 61.3846 16.9763 109.309 24.2101C133.275 27.8276 152.642 32.1315 166.007 36.9011C172.692 39.287 177.846 41.7791 181.319 44.341C184.806 46.9125 186.5 49.4787 186.5 52Z" stroke="white"/>
<path d="M186.5 65C186.5 67.5213 184.806 70.0875 181.319 72.659C177.846 75.2209 172.692 77.713 166.007 80.0989C152.642 84.8685 133.275 89.1724 109.309 92.7899C61.3846 100.024 -4.83923 104.5 -78 104.5C-151.161 104.5 -217.385 100.024 -265.309 92.7899C-289.275 89.1724 -308.642 84.8685 -322.007 80.0989C-328.692 77.713 -333.846 75.2209 -337.319 72.659C-340.806 70.0875 -342.5 67.5213 -342.5 65C-342.5 62.4787 -340.806 59.9125 -337.319 57.341C-333.846 54.7791 -328.692 52.287 -322.007 49.9011C-308.642 45.1315 -289.275 40.8276 -265.309 37.2101C-217.385 29.9763 -151.161 25.5 -78 25.5C-4.83923 25.5 61.3846 29.9763 109.309 37.2101C133.275 40.8276 152.642 45.1315 166.007 49.9011C172.692 52.287 177.846 54.7791 181.319 57.341C184.806 59.9125 186.5 62.4787 186.5 65Z" stroke="white"/>
<path d="M186.5 77C186.5 79.5213 184.806 82.0875 181.319 84.659C177.846 87.2209 172.692 89.713 166.007 92.0989C152.642 96.8685 133.275 101.172 109.309 104.79C61.3846 112.024 -4.83923 116.5 -78 116.5C-151.161 116.5 -217.385 112.024 -265.309 104.79C-289.275 101.172 -308.642 96.8685 -322.007 92.0989C-328.692 89.713 -333.846 87.2209 -337.319 84.659C-340.806 82.0875 -342.5 79.5213 -342.5 77C-342.5 74.4787 -340.806 71.9125 -337.319 69.341C-333.846 66.7791 -328.692 64.287 -322.007 61.9011C-308.642 57.1315 -289.275 52.8276 -265.309 49.2101C-217.385 41.9763 -151.161 37.5 -78 37.5C-4.83923 37.5 61.3846 41.9763 109.309 49.2101C133.275 52.8276 152.642 57.1315 166.007 61.9011C172.692 64.287 177.846 66.7791 181.319 69.341C184.806 71.9125 186.5 74.4787 186.5 77Z" stroke="white"/>
<path d="M186.5 89C186.5 91.5213 184.806 94.0875 181.319 96.659C177.846 99.2209 172.692 101.713 166.007 104.099C152.642 108.868 133.275 113.172 109.309 116.79C61.3846 124.024 -4.83923 128.5 -78 128.5C-151.161 128.5 -217.385 124.024 -265.309 116.79C-289.275 113.172 -308.642 108.868 -322.007 104.099C-328.692 101.713 -333.846 99.2209 -337.319 96.659C-340.806 94.0875 -342.5 91.5213 -342.5 89C-342.5 86.4787 -340.806 83.9125 -337.319 81.341C-333.846 78.7791 -328.692 76.287 -322.007 73.9011C-308.642 69.1315 -289.275 64.8276 -265.309 61.2101C-217.385 53.9763 -151.161 49.5 -78 49.5C-4.83923 49.5 61.3846 53.9763 109.309 61.2101C133.275 64.8276 152.642 69.1315 166.007 73.9011C172.692 76.287 177.846 78.7791 181.319 81.341C184.806 83.9125 186.5 86.4787 186.5 89Z" stroke="white"/>
</g>
</svg>
