<svg width="188" height="129" viewBox="0 0 188 129" fill="none" xmlns="http://www.w3.org/2000/svg">
<g opacity="0.25">
<path d="M187.5 40C187.5 42.5213 185.806 45.0875 182.319 47.659C178.846 50.2209 173.692 52.713 167.007 55.0989C153.642 59.8685 134.275 64.1724 110.309 67.7899C62.3846 75.0237 -3.83923 79.5 -77 79.5C-150.161 79.5 -216.385 75.0237 -264.309 67.7899C-288.275 64.1724 -307.642 59.8685 -321.007 55.0989C-327.692 52.713 -332.846 50.2209 -336.319 47.659C-339.806 45.0875 -341.5 42.5213 -341.5 40C-341.5 37.4787 -339.806 34.9125 -336.319 32.341C-332.846 29.7791 -327.692 27.287 -321.007 24.9011C-307.642 20.1315 -288.275 15.8276 -264.309 12.2101C-216.385 4.97631 -150.161 0.5 -77 0.5C-3.83923 0.5 62.3846 4.97631 110.309 12.2101C134.275 15.8276 153.642 20.1315 167.007 24.9011C173.692 27.287 178.846 29.7791 182.319 32.341C185.806 34.9125 187.5 37.4787 187.5 40Z" stroke="white"/>
<path d="M187.5 52C187.5 54.5213 185.806 57.0875 182.319 59.659C178.846 62.2209 173.692 64.713 167.007 67.0989C153.642 71.8685 134.275 76.1724 110.309 79.7899C62.3846 87.0237 -3.83923 91.5 -77 91.5C-150.161 91.5 -216.385 87.0237 -264.309 79.7899C-288.275 76.1724 -307.642 71.8685 -321.007 67.0989C-327.692 64.713 -332.846 62.2209 -336.319 59.659C-339.806 57.0875 -341.5 54.5213 -341.5 52C-341.5 49.4787 -339.806 46.9125 -336.319 44.341C-332.846 41.7791 -327.692 39.287 -321.007 36.9011C-307.642 32.1315 -288.275 27.8276 -264.309 24.2101C-216.385 16.9763 -150.161 12.5 -77 12.5C-3.83923 12.5 62.3846 16.9763 110.309 24.2101C134.275 27.8276 153.642 32.1315 167.007 36.9011C173.692 39.287 178.846 41.7791 182.319 44.341C185.806 46.9125 187.5 49.4787 187.5 52Z" stroke="white"/>
<path d="M187.5 65C187.5 67.5213 185.806 70.0875 182.319 72.659C178.846 75.2209 173.692 77.713 167.007 80.0989C153.642 84.8685 134.275 89.1724 110.309 92.7899C62.3846 100.024 -3.83923 104.5 -77 104.5C-150.161 104.5 -216.385 100.024 -264.309 92.7899C-288.275 89.1724 -307.642 84.8685 -321.007 80.0989C-327.692 77.713 -332.846 75.2209 -336.319 72.659C-339.806 70.0875 -341.5 67.5213 -341.5 65C-341.5 62.4787 -339.806 59.9125 -336.319 57.341C-332.846 54.7791 -327.692 52.287 -321.007 49.9011C-307.642 45.1315 -288.275 40.8276 -264.309 37.2101C-216.385 29.9763 -150.161 25.5 -77 25.5C-3.83923 25.5 62.3846 29.9763 110.309 37.2101C134.275 40.8276 153.642 45.1315 167.007 49.9011C173.692 52.287 178.846 54.7791 182.319 57.341C185.806 59.9125 187.5 62.4787 187.5 65Z" stroke="white"/>
<path d="M187.5 77C187.5 79.5213 185.806 82.0875 182.319 84.659C178.846 87.2209 173.692 89.713 167.007 92.0989C153.642 96.8685 134.275 101.172 110.309 104.79C62.3846 112.024 -3.83923 116.5 -77 116.5C-150.161 116.5 -216.385 112.024 -264.309 104.79C-288.275 101.172 -307.642 96.8685 -321.007 92.0989C-327.692 89.713 -332.846 87.2209 -336.319 84.659C-339.806 82.0875 -341.5 79.5213 -341.5 77C-341.5 74.4787 -339.806 71.9125 -336.319 69.341C-332.846 66.7791 -327.692 64.287 -321.007 61.9011C-307.642 57.1315 -288.275 52.8276 -264.309 49.2101C-216.385 41.9763 -150.161 37.5 -77 37.5C-3.83923 37.5 62.3846 41.9763 110.309 49.2101C134.275 52.8276 153.642 57.1315 167.007 61.9011C173.692 64.287 178.846 66.7791 182.319 69.341C185.806 71.9125 187.5 74.4787 187.5 77Z" stroke="white"/>
<path d="M187.5 89C187.5 91.5213 185.806 94.0875 182.319 96.659C178.846 99.2209 173.692 101.713 167.007 104.099C153.642 108.868 134.275 113.172 110.309 116.79C62.3846 124.024 -3.83923 128.5 -77 128.5C-150.161 128.5 -216.385 124.024 -264.309 116.79C-288.275 113.172 -307.642 108.868 -321.007 104.099C-327.692 101.713 -332.846 99.2209 -336.319 96.659C-339.806 94.0875 -341.5 91.5213 -341.5 89C-341.5 86.4787 -339.806 83.9125 -336.319 81.341C-332.846 78.7791 -327.692 76.287 -321.007 73.9011C-307.642 69.1315 -288.275 64.8276 -264.309 61.2101C-216.385 53.9763 -150.161 49.5 -77 49.5C-3.83923 49.5 62.3846 53.9763 110.309 61.2101C134.275 64.8276 153.642 69.1315 167.007 73.9011C173.692 76.287 178.846 78.7791 182.319 81.341C185.806 83.9125 187.5 86.4787 187.5 89Z" stroke="white"/>
</g>
</svg>
