<svg width="325" height="129" viewBox="0 0 325 129" fill="none" xmlns="http://www.w3.org/2000/svg">
<g opacity="0.25">
<path d="M324.5 40C324.5 42.5213 322.806 45.0875 319.319 47.659C315.846 50.2209 310.692 52.713 304.007 55.0989C290.642 59.8685 271.275 64.1724 247.309 67.7899C199.385 75.0237 133.161 79.5 60 79.5C-13.1608 79.5 -79.3846 75.0237 -127.309 67.7899C-151.275 64.1724 -170.642 59.8685 -184.007 55.0989C-190.692 52.713 -195.846 50.2209 -199.319 47.659C-202.806 45.0875 -204.5 42.5213 -204.5 40C-204.5 37.4787 -202.806 34.9125 -199.319 32.341C-195.846 29.7791 -190.692 27.287 -184.007 24.9011C-170.642 20.1315 -151.275 15.8276 -127.309 12.2101C-79.3846 4.97631 -13.1608 0.5 60 0.5C133.161 0.5 199.385 4.97631 247.309 12.2101C271.275 15.8276 290.642 20.1315 304.007 24.9011C310.692 27.287 315.846 29.7791 319.319 32.341C322.806 34.9125 324.5 37.4787 324.5 40Z" stroke="white"/>
<path d="M324.5 52C324.5 54.5213 322.806 57.0875 319.319 59.659C315.846 62.2209 310.692 64.713 304.007 67.0989C290.642 71.8685 271.275 76.1724 247.309 79.7899C199.385 87.0237 133.161 91.5 60 91.5C-13.1608 91.5 -79.3846 87.0237 -127.309 79.7899C-151.275 76.1724 -170.642 71.8685 -184.007 67.0989C-190.692 64.713 -195.846 62.2209 -199.319 59.659C-202.806 57.0875 -204.5 54.5213 -204.5 52C-204.5 49.4787 -202.806 46.9125 -199.319 44.341C-195.846 41.7791 -190.692 39.287 -184.007 36.9011C-170.642 32.1315 -151.275 27.8276 -127.309 24.2101C-79.3846 16.9763 -13.1608 12.5 60 12.5C133.161 12.5 199.385 16.9763 247.309 24.2101C271.275 27.8276 290.642 32.1315 304.007 36.9011C310.692 39.287 315.846 41.7791 319.319 44.341C322.806 46.9125 324.5 49.4787 324.5 52Z" stroke="white"/>
<path d="M324.5 65C324.5 67.5213 322.806 70.0875 319.319 72.659C315.846 75.2209 310.692 77.713 304.007 80.0989C290.642 84.8685 271.275 89.1724 247.309 92.7899C199.385 100.024 133.161 104.5 60 104.5C-13.1608 104.5 -79.3846 100.024 -127.309 92.7899C-151.275 89.1724 -170.642 84.8685 -184.007 80.0989C-190.692 77.713 -195.846 75.2209 -199.319 72.659C-202.806 70.0875 -204.5 67.5213 -204.5 65C-204.5 62.4787 -202.806 59.9125 -199.319 57.341C-195.846 54.7791 -190.692 52.287 -184.007 49.9011C-170.642 45.1315 -151.275 40.8276 -127.309 37.2101C-79.3846 29.9763 -13.1608 25.5 60 25.5C133.161 25.5 199.385 29.9763 247.309 37.2101C271.275 40.8276 290.642 45.1315 304.007 49.9011C310.692 52.287 315.846 54.7791 319.319 57.341C322.806 59.9125 324.5 62.4787 324.5 65Z" stroke="white"/>
<path d="M324.5 77C324.5 79.5213 322.806 82.0875 319.319 84.659C315.846 87.2209 310.692 89.713 304.007 92.0989C290.642 96.8685 271.275 101.172 247.309 104.79C199.385 112.024 133.161 116.5 60 116.5C-13.1608 116.5 -79.3846 112.024 -127.309 104.79C-151.275 101.172 -170.642 96.8685 -184.007 92.0989C-190.692 89.713 -195.846 87.2209 -199.319 84.659C-202.806 82.0875 -204.5 79.5213 -204.5 77C-204.5 74.4787 -202.806 71.9125 -199.319 69.341C-195.846 66.7791 -190.692 64.287 -184.007 61.9011C-170.642 57.1315 -151.275 52.8276 -127.309 49.2101C-79.3846 41.9763 -13.1608 37.5 60 37.5C133.161 37.5 199.385 41.9763 247.309 49.2101C271.275 52.8276 290.642 57.1315 304.007 61.9011C310.692 64.287 315.846 66.7791 319.319 69.341C322.806 71.9125 324.5 74.4787 324.5 77Z" stroke="white"/>
<path d="M324.5 89C324.5 91.5213 322.806 94.0875 319.319 96.659C315.846 99.2209 310.692 101.713 304.007 104.099C290.642 108.868 271.275 113.172 247.309 116.79C199.385 124.024 133.161 128.5 60 128.5C-13.1608 128.5 -79.3846 124.024 -127.309 116.79C-151.275 113.172 -170.642 108.868 -184.007 104.099C-190.692 101.713 -195.846 99.2209 -199.319 96.659C-202.806 94.0875 -204.5 91.5213 -204.5 89C-204.5 86.4787 -202.806 83.9125 -199.319 81.341C-195.846 78.7791 -190.692 76.287 -184.007 73.9011C-170.642 69.1315 -151.275 64.8276 -127.309 61.2101C-79.3846 53.9763 -13.1608 49.5 60 49.5C133.161 49.5 199.385 53.9763 247.309 61.2101C271.275 64.8276 290.642 69.1315 304.007 73.9011C310.692 76.287 315.846 78.7791 319.319 81.341C322.806 83.9125 324.5 86.4787 324.5 89Z" stroke="white"/>
</g>
</svg>
