<svg width="162" height="129" viewBox="0 0 162 129" fill="none" xmlns="http://www.w3.org/2000/svg">
<g opacity="0.25">
<path d="M161.5 40C161.5 42.5213 159.806 45.0875 156.319 47.659C152.846 50.2209 147.692 52.713 141.007 55.0989C127.642 59.8685 108.275 64.1724 84.3087 67.7899C36.3846 75.0237 -29.8392 79.5 -103 79.5C-176.161 79.5 -242.385 75.0237 -290.309 67.7899C-314.275 64.1724 -333.642 59.8685 -347.007 55.0989C-353.692 52.713 -358.846 50.2209 -362.319 47.659C-365.806 45.0875 -367.5 42.5213 -367.5 40C-367.5 37.4787 -365.806 34.9125 -362.319 32.341C-358.846 29.7791 -353.692 27.287 -347.007 24.9011C-333.642 20.1315 -314.275 15.8276 -290.309 12.2101C-242.385 4.97631 -176.161 0.5 -103 0.5C-29.8392 0.5 36.3846 4.97631 84.3087 12.2101C108.275 15.8276 127.642 20.1315 141.007 24.9011C147.692 27.287 152.846 29.7791 156.319 32.341C159.806 34.9125 161.5 37.4787 161.5 40Z" stroke="white"/>
<path d="M161.5 52C161.5 54.5213 159.806 57.0875 156.319 59.659C152.846 62.2209 147.692 64.713 141.007 67.0989C127.642 71.8685 108.275 76.1724 84.3087 79.7899C36.3846 87.0237 -29.8392 91.5 -103 91.5C-176.161 91.5 -242.385 87.0237 -290.309 79.7899C-314.275 76.1724 -333.642 71.8685 -347.007 67.0989C-353.692 64.713 -358.846 62.2209 -362.319 59.659C-365.806 57.0875 -367.5 54.5213 -367.5 52C-367.5 49.4787 -365.806 46.9125 -362.319 44.341C-358.846 41.7791 -353.692 39.287 -347.007 36.9011C-333.642 32.1315 -314.275 27.8276 -290.309 24.2101C-242.385 16.9763 -176.161 12.5 -103 12.5C-29.8392 12.5 36.3846 16.9763 84.3087 24.2101C108.275 27.8276 127.642 32.1315 141.007 36.9011C147.692 39.287 152.846 41.7791 156.319 44.341C159.806 46.9125 161.5 49.4787 161.5 52Z" stroke="white"/>
<path d="M161.5 65C161.5 67.5213 159.806 70.0875 156.319 72.659C152.846 75.2209 147.692 77.713 141.007 80.0989C127.642 84.8685 108.275 89.1724 84.3087 92.7899C36.3846 100.024 -29.8392 104.5 -103 104.5C-176.161 104.5 -242.385 100.024 -290.309 92.7899C-314.275 89.1724 -333.642 84.8685 -347.007 80.0989C-353.692 77.713 -358.846 75.2209 -362.319 72.659C-365.806 70.0875 -367.5 67.5213 -367.5 65C-367.5 62.4787 -365.806 59.9125 -362.319 57.341C-358.846 54.7791 -353.692 52.287 -347.007 49.9011C-333.642 45.1315 -314.275 40.8276 -290.309 37.2101C-242.385 29.9763 -176.161 25.5 -103 25.5C-29.8392 25.5 36.3846 29.9763 84.3087 37.2101C108.275 40.8276 127.642 45.1315 141.007 49.9011C147.692 52.287 152.846 54.7791 156.319 57.341C159.806 59.9125 161.5 62.4787 161.5 65Z" stroke="white"/>
<path d="M161.5 77C161.5 79.5213 159.806 82.0875 156.319 84.659C152.846 87.2209 147.692 89.713 141.007 92.0989C127.642 96.8685 108.275 101.172 84.3087 104.79C36.3846 112.024 -29.8392 116.5 -103 116.5C-176.161 116.5 -242.385 112.024 -290.309 104.79C-314.275 101.172 -333.642 96.8685 -347.007 92.0989C-353.692 89.713 -358.846 87.2209 -362.319 84.659C-365.806 82.0875 -367.5 79.5213 -367.5 77C-367.5 74.4787 -365.806 71.9125 -362.319 69.341C-358.846 66.7791 -353.692 64.287 -347.007 61.9011C-333.642 57.1315 -314.275 52.8276 -290.309 49.2101C-242.385 41.9763 -176.161 37.5 -103 37.5C-29.8392 37.5 36.3846 41.9763 84.3087 49.2101C108.275 52.8276 127.642 57.1315 141.007 61.9011C147.692 64.287 152.846 66.7791 156.319 69.341C159.806 71.9125 161.5 74.4787 161.5 77Z" stroke="white"/>
<path d="M161.5 89C161.5 91.5213 159.806 94.0875 156.319 96.659C152.846 99.2209 147.692 101.713 141.007 104.099C127.642 108.868 108.275 113.172 84.3087 116.79C36.3846 124.024 -29.8392 128.5 -103 128.5C-176.161 128.5 -242.385 124.024 -290.309 116.79C-314.275 113.172 -333.642 108.868 -347.007 104.099C-353.692 101.713 -358.846 99.2209 -362.319 96.659C-365.806 94.0875 -367.5 91.5213 -367.5 89C-367.5 86.4787 -365.806 83.9125 -362.319 81.341C-358.846 78.7791 -353.692 76.287 -347.007 73.9011C-333.642 69.1315 -314.275 64.8276 -290.309 61.2101C-242.385 53.9763 -176.161 49.5 -103 49.5C-29.8392 49.5 36.3846 53.9763 84.3087 61.2101C108.275 64.8276 127.642 69.1315 141.007 73.9011C147.692 76.287 152.846 78.7791 156.319 81.341C159.806 83.9125 161.5 86.4787 161.5 89Z" stroke="white"/>
</g>
</svg>
